<?xml version="1.0" encoding="UTF-8"?>
<svg id="Shape_logo" data-name="Shape logo" xmlns="http://www.w3.org/2000/svg" viewBox="0 0 2000 2000">
  <defs>
    <style>
      .cls-1 {
        fill: #5669ff;
      }

      .cls-1, .cls-2 {
        stroke-width: 0px;
      }

      .cls-2 {
        fill: #fff;
      }
    </style>
  </defs>
  <g id="Layer_1_copy" data-name="Layer 1 copy">
    <g>
      <rect class="cls-1" x="396.44" y="396.44" width="1207.13" height="1207.13" rx="163.13" ry="163.13" transform="translate(-414.21 1000) rotate(-45)"/>
      <g>
        <path class="cls-2" d="M1005.9,996.41l252.22-252.22c3.78-3.78,5.9-8.9,5.9-14.23v-235.54c0-11.12-9.01-20.13-20.13-20.13h-235.54c-5.34,0-10.46,2.12-14.23,5.9l-252.22,252.22c-3.78,3.78-5.9,8.9-5.9,14.24v235.54c0,11.12,9.01,20.13,20.13,20.13h235.54c5.34,0,10.46-2.12,14.24-5.9Z"/>
        <path class="cls-2" d="M1005.9,1519.82l252.22-252.22c3.78-3.78,5.9-8.9,5.9-14.23v-235.54c0-11.12-9.01-20.13-20.13-20.13h-235.54c-5.34,0-10.46,2.12-14.23,5.9l-252.22,252.22c-3.78,3.78-5.9,8.9-5.9,14.24v235.54c0,11.12,9.01,20.13,20.13,20.13h235.54c5.34,0,10.46-2.12,14.24-5.9Z"/>
      </g>
    </g>
  </g>
</svg>